<svg width="800" height="600" viewBox="0 0 800 600" fill="none" xmlns="http://www.w3.org/2000/svg">
  <rect width="800" height="600" fill="#F8FAFC"/>
  <!-- Chef Body -->
  <rect x="350" y="250" width="100" height="150" rx="20" fill="#0F172A" fill-opacity="0.1"/>
  <circle cx="400" cy="200" r="40" fill="#0F172A" fill-opacity="0.1"/>
  <!-- Hat -->
  <path d="M370 160C370 140 380 120 400 120C420 120 430 140 430 160V180H370V160Z" fill="#F97316"/>
  <!-- Pot -->
  <rect x="300" y="400" width="200" height="100" rx="10" fill="#0F172A"/>
  <rect x="280" y="420" width="20" height="10" rx="5" fill="#0F172A"/>
  <rect x="500" y="420" width="20" height="10" rx="5" fill="#0F172A"/>
  <!-- Steam -->
  <path d="M350 370Q360 340 350 310" stroke="#F97316" stroke-width="4" stroke-linecap="round" opacity="0.4"/>
  <path d="M400 360Q410 330 400 300" stroke="#F97316" stroke-width="4" stroke-linecap="round" opacity="0.6"/>
  <path d="M450 370Q460 340 450 310" stroke="#F97316" stroke-width="4" stroke-linecap="round" opacity="0.4"/>
</svg>
