<svg width="800" height="600" viewBox="0 0 800 600" fill="none" xmlns="http://www.w3.org/2000/svg">
  <rect width="800" height="600" fill="#F8FAFC"/>
  <!-- Table Top -->
  <path d="M100 450L700 450L600 550L200 550L100 450Z" fill="#0F172A" fill-opacity="0.05"/>
  <rect x="150" y="440" width="500" height="10" fill="#0F172A"/>
  <!-- Wine Glass -->
  <path d="M300 350C300 280 400 280 400 350L350 400H350L300 350Z" fill="#F97316" fill-opacity="0.2"/>
  <rect x="345" y="400" width="10" height="40" fill="#0F172A"/>
  <rect x="320" y="435" width="60" height="5" rx="2" fill="#0F172A"/>
  <!-- Candle -->
  <rect x="500" y="320" width="30" height="120" fill="#0F172A" fill-opacity="0.1"/>
  <rect x="510" y="310" width="10" height="20" fill="#0F172A"/>
  <path d="M515 280Q525 295 515 310" fill="#F97316"/>
  <!-- Platter -->
  <ellipse cx="450" cy="420" rx="80" ry="15" fill="#E2E8F0"/>
  <path d="M400 420Q450 380 500 420" stroke="#0F172A" stroke-width="2" opacity="0.3"/>
</svg>
