<svg width="800" height="600" viewBox="0 0 800 600" fill="none" xmlns="http://www.w3.org/2000/svg">
  <rect width="800" height="600" fill="#F8FAFC"/>
  <!-- Table -->
  <rect x="200" y="350" width="400" height="20" rx="10" fill="#0F172A"/>
  <rect x="250" y="370" width="10" height="150" fill="#0F172A"/>
  <rect x="540" y="370" width="10" height="150" fill="#0F172A"/>
  <!-- Chairs -->
  <path d="M120 300V520M120 380H180V520" stroke="#0F172A" stroke-width="8" stroke-linecap="round"/>
  <path d="M620 300V520M620 380H680V520" stroke="#0F172A" stroke-width="8" stroke-linecap="round"/>
  <!-- Plate and Menu -->
  <circle cx="350" cy="335" r="30" fill="#E2E8F0"/>
  <rect x="450" y="280" width="60" height="80" rx="4" fill="#64748B" fill-opacity="0.2" stroke="#0F172A" stroke-width="2"/>
  <rect x="460" y="300" width="40" height="4" rx="2" fill="#F97316"/>
  <rect x="460" y="310" width="40" height="4" rx="2" fill="#0F172A" fill-opacity="0.3"/>
  <rect x="460" y="320" width="25" height="4" rx="2" fill="#0F172A" fill-opacity="0.3"/>
  <!-- Atmosphere -->
  <circle cx="400" cy="200" r="100" fill="#F97316" fill-opacity="0.05"/>
  <path d="M400 50V100" stroke="#F97316" stroke-width="2" stroke-dasharray="4 4"/>
</svg>
